<!DOCTYPE svg PUBLIC "-//W3C//DTD SVG 1.1//EN" "http://www.w3.org/Graphics/SVG/1.1/DTD/svg11.dtd">
<!-- Uploaded to: SVG Repo, www.svgrepo.com, Transformed by: SVG Repo Mixer Tools -->
<svg fill="#D4A843" height="800px" width="800px" version="1.1" id="Layer_1" xmlns="http://www.w3.org/2000/svg" xmlns:xlink="http://www.w3.org/1999/xlink" viewBox="0 0 512 512" xml:space="preserve">
<g id="SVGRepo_bgCarrier" stroke-width="0"/>
<g id="SVGRepo_tracerCarrier" stroke-linecap="round" stroke-linejoin="round"/>
<g id="SVGRepo_iconCarrier"> <g> <g> <path d="M511.582,330.271l-17.685-110.574c-2.881-18.008-19.88-30.313-37.883-27.434l-35.447,5.669l-1.415-8.846 c-2.715-16.978-18.736-28.586-35.715-25.866l-112.494,17.992c-8.21,1.312-15.425,5.755-20.318,12.51 c-2.7,3.729-4.505,7.911-5.364,12.29v-7.53c0-17.194-13.988-31.182-31.182-31.182H100.155c-17.194,0-31.182,13.988-31.182,31.182 v8.958H33.075C14.838,207.439,0,222.277,0,240.513v111.979c0,18.238,14.838,33.076,33.075,33.076h35.897V422.9 c0,17.194,13.988,31.182,31.182,31.182h113.925c17.194,0,31.182-13.988,31.182-31.182V269.772c0.341-1.968,0.319-3.925,0-5.81 v-45.878l10.156,63.501c-0.017,1.911,0.27,3.847,0.917,5.735l24.183,151.207c2.451,15.318,15.729,26.26,30.773,26.26 c1.63,0,3.282-0.128,4.941-0.395l112.495-17.992c8.209-1.312,15.425-5.755,20.317-12.51c4.892-6.755,6.862-14.995,5.55-23.205 l-5.896-36.864l35.447-5.669C502.153,365.275,514.461,348.28,511.582,330.271z M68.135,350.92H34.647V242.085h33.488V350.92z M210.614,244.185c-19.095-4.525-39.186-4.792-58.386-0.735c-16.064,3.398-32.871,2.711-48.609-1.983v-39.521h106.995V244.185z M344.042,246.639c-19.609-0.97-39.399,2.461-57.536,9.945l-6.671-41.709l105.652-16.898l6.241,39.026 C376.93,244.122,360.436,247.462,344.042,246.639z M444.053,339.48l-17.188-107.471l33.068-5.288l17.187,107.47L444.053,339.48z"/> </g> </g> <g> <g> <path d="M343.478,103.528c-6.764-6.764-17.733-6.764-24.499,0l-35.547,35.547c-6.764,6.764-6.764,17.733,0,24.499 c3.383,3.383,7.816,5.075,12.249,5.075c4.432,0,8.867-1.692,12.25-5.075l35.547-35.547 C350.242,121.262,350.242,110.293,343.478,103.528z"/> </g> </g> <g> <g> <path d="M220.007,130.96l-33.7-54.294c-5.046-8.129-15.725-10.632-23.854-5.583c-8.129,5.045-10.628,15.725-5.583,23.853 l33.7,54.293c3.28,5.285,8.941,8.19,14.735,8.19c3.118,0,6.276-0.842,9.119-2.608C222.553,149.768,225.052,139.088,220.007,130.96 z"/> </g> </g> <g> <g> <path d="M263.138,47.281c-9.529-0.848-17.947,6.18-18.802,15.708l-5.049,56.296c-0.855,9.528,6.177,17.946,15.706,18.8 c0.527,0.046,1.049,0.07,1.567,0.07c8.868,0,16.427-6.775,17.234-15.777l5.049-56.296 C279.699,56.554,272.667,48.136,263.138,47.281z"/> </g> </g> </g>
</svg>