<!DOCTYPE svg PUBLIC "-//W3C//DTD SVG 1.1//EN" "http://www.w3.org/Graphics/SVG/1.1/DTD/svg11.dtd">
<!-- Uploaded to: SVG Repo, www.svgrepo.com, Transformed by: SVG Repo Mixer Tools -->
<svg version="1.1" id="_x32_" xmlns="http://www.w3.org/2000/svg" xmlns:xlink="http://www.w3.org/1999/xlink" viewBox="0 0 512 512" xml:space="preserve" width="800px" height="800px" fill="#000000">
<g id="SVGRepo_bgCarrier" stroke-width="0"/>
<g id="SVGRepo_tracerCarrier" stroke-linecap="round" stroke-linejoin="round"/>
<g id="SVGRepo_iconCarrier"> <style type="text/css"> .st0{fill:#D4A843;} </style> <g> <rect x="19.564" y="447.635" transform="matrix(-0.7071 -0.7071 0.7071 -0.7071 -285.559 842.3594)" class="st0" width="24.231" height="65.371"/> <polygon class="st0" points="0.17,494.699 46.394,448.809 63.188,465.945 17.133,511.66 "/> <path class="st0" d="M263.682,147.594L43.473,412.466l56.061,56.061l264.872-220.21L263.682,147.594z M99.534,468.528 l264.872-220.21"/> <path class="st0" d="M43.642,412.297l220.223-264.551l100.371,100.738L99.549,468.203L43.642,412.297z"/> <path class="st0" d="M273.211,120.521l118.268,118.268c29.522,0.34,59.073-10.42,82.226-31.882L305.092,38.295 C283.631,61.447,272.872,90.999,273.211,120.521z"/> <path class="st0" d="M391.48,238.551l-118.1-118.199c-0.279-30.238,11.02-59.379,31.887-81.891l168.268,168.614 c-22.131,20.18-50.791,31.484-80.695,31.484L391.48,238.551z"/> <path class="st0" d="M477.097,34.904C437.35-4.844,376.59-10.594,330.612,17.4L494.6,181.387 C522.594,135.409,516.844,74.65,477.097,34.904z"/> <path class="st0" d="M330.783,17.23c18.611-10.984,40.072-16.992,62.018-16.992c31.787,0,61.664,12.371,84.127,34.832 c38.895,38.898,46.123,98.863,17.625,145.93L330.783,17.23z"/> </g> </g>
<!-- Code injected by live-server -->
<script>
	// <![CDATA[  <-- For SVG support
	if ('WebSocket' in window) {
		(function () {
			function refreshCSS() {
				var sheets = [].slice.call(document.getElementsByTagName("link"));
				var head = document.getElementsByTagName("head")[0];
				for (var i = 0; i < sheets.length; ++i) {
					var elem = sheets[i];
					var parent = elem.parentElement || head;
					parent.removeChild(elem);
					var rel = elem.rel;
					if (elem.href && typeof rel != "string" || rel.length == 0 || rel.toLowerCase() == "stylesheet") {
						var url = elem.href.replace(/(&|\?)_cacheOverride=\d+/, '');
						elem.href = url + (url.indexOf('?') >= 0 ? '&' : '?') + '_cacheOverride=' + (new Date().valueOf());
					}
					parent.appendChild(elem);
				}
			}
			var protocol = window.location.protocol === 'http:' ? 'ws://' : 'wss://';
			var address = protocol + window.location.host + window.location.pathname + '/ws';
			var socket = new WebSocket(address);
			socket.onmessage = function (msg) {
				if (msg.data == 'reload') window.location.reload();
				else if (msg.data == 'refreshcss') refreshCSS();
			};
			if (sessionStorage && !sessionStorage.getItem('IsThisFirstTime_Log_From_LiveServer')) {
				console.log('Live reload enabled.');
				sessionStorage.setItem('IsThisFirstTime_Log_From_LiveServer', true);
			}
		})();
	}
	else {
		console.error('Upgrade your browser. This Browser is NOT supported WebSocket for Live-Reloading.');
	}
	// ]]>
</script>
</svg>